<svg id="Capa_1" data-name="Capa 1" xmlns="http://www.w3.org/2000/svg" viewBox="0 0 13 18.37"><defs><style>.cls-1{isolation:isolate;}.cls-2{fill:#cb7d1c;}.cls-3{fill:#9f6315;}.cls-4{fill:#b57019;}.cls-5{fill:#b9862f;}.cls-6{fill:#b67019;}.cls-7{fill:#d09534;}.cls-8{fill:#a27629;}.cls-9{fill:#d69935;}.cls-10{fill:#d1801d;}</style></defs><title>svgMesa de trabajo 1</title><g class="cls-1"><polygon class="cls-2" points="7.8 0.44 7.88 12.4 2.25 13.25 2.17 1.29 7.8 0.44"/><polygon class="cls-3" points="12.09 2.35 12.17 14.31 7.88 12.4 7.8 0.44 12.09 2.35"/><polygon class="cls-4" points="2.17 1.29 2.25 13.25 0.91 16.01 0.83 4.05 2.17 1.29"/><polygon class="cls-5" points="12.09 2.35 12.17 14.31 10.83 17.07 10.75 5.11 12.09 2.35"/><polygon class="cls-6" points="12.18 2.33 12.26 14.29 10.9 17.1 10.82 5.14 12.18 2.33"/><polygon class="cls-7" points="10.75 5.11 10.83 17.07 5.2 17.91 5.12 5.96 10.75 5.11"/><polygon class="cls-8" points="5.12 5.96 5.2 17.91 0.91 16.01 0.83 4.05 5.12 5.96"/><polygon class="cls-9" points="12.09 2.35 10.75 5.11 5.12 5.96 0.83 4.05 2.17 1.29 7.8 0.44 12.09 2.35"/><polygon class="cls-3" points="5.1 6 5.18 17.96 0.82 16.02 0.74 4.06 5.1 6"/><polygon class="cls-2" points="10.82 5.14 10.9 17.1 5.18 17.96 5.1 6 10.82 5.14"/><path class="cls-10" d="M12.17,2.33l-1.36,2.8L5.1,6,.74,4.06,2.1,1.26,7.81.39ZM5.12,6l5.63-.85,1.34-2.76L7.8.44l-5.63.85L.83,4,5.12,6"/></g></svg>